<mxfile host="app.diagrams.net" agent="Mozilla/5.0 (Windows NT 10.0; Win64; x64) AppleWebKit/537.36 (KHTML, like Gecko) Chrome/138.0.0.0 YaBrowser/25.8.0.0 Safari/537.36" version="28.2.5">
  <diagram id="A4ddEeKPBa521lVA2pRK" name="Страница — 1">
    <mxGraphModel dx="983" dy="549" grid="1" gridSize="10" guides="1" tooltips="1" connect="1" arrows="1" fold="1" page="1" pageScale="1" pageWidth="827" pageHeight="1169" math="0" shadow="0">
      <root>
        <mxCell id="0" />
        <mxCell id="1" parent="0" />
        <mxCell id="2" value="Start" style="whiteSpace=wrap;strokeWidth=2;" parent="1" vertex="1">
          <mxGeometry x="8" y="8" width="95" height="54" as="geometry" />
        </mxCell>
        <mxCell id="3" value="Stop" style="whiteSpace=wrap;strokeWidth=2;" parent="1" vertex="1">
          <mxGeometry x="10" y="112" width="92" height="54" as="geometry" />
        </mxCell>
        <mxCell id="4" value="" style="curved=1;startArrow=none;endArrow=block;exitX=0.5;exitY=1;entryX=0.49;entryY=0;" parent="1" source="2" target="3" edge="1">
          <mxGeometry relative="1" as="geometry">
            <Array as="points" />
          </mxGeometry>
        </mxCell>
        <mxCell id="0NCqeGAWrg3241uhKIiS-71" style="edgeStyle=orthogonalEdgeStyle;rounded=0;orthogonalLoop=1;jettySize=auto;html=1;entryX=1;entryY=0.5;entryDx=0;entryDy=0;" edge="1" parent="1" source="0NCqeGAWrg3241uhKIiS-54" target="0NCqeGAWrg3241uhKIiS-55">
          <mxGeometry relative="1" as="geometry">
            <Array as="points">
              <mxPoint x="700" y="630" />
              <mxPoint x="700" y="350" />
            </Array>
          </mxGeometry>
        </mxCell>
        <mxCell id="0NCqeGAWrg3241uhKIiS-72" style="edgeStyle=orthogonalEdgeStyle;rounded=0;orthogonalLoop=1;jettySize=auto;html=1;" edge="1" parent="1" source="0NCqeGAWrg3241uhKIiS-55">
          <mxGeometry relative="1" as="geometry">
            <mxPoint x="490" y="350" as="targetPoint" />
          </mxGeometry>
        </mxCell>
        <mxCell id="0NCqeGAWrg3241uhKIiS-55" value="Програма" style="rounded=0;whiteSpace=wrap;html=1;" vertex="1" parent="1">
          <mxGeometry x="540" y="320" width="120" height="60" as="geometry" />
        </mxCell>
        <mxCell id="0NCqeGAWrg3241uhKIiS-60" style="edgeStyle=orthogonalEdgeStyle;rounded=0;orthogonalLoop=1;jettySize=auto;html=1;entryX=1;entryY=0.5;entryDx=0;entryDy=0;" edge="1" parent="1" source="0NCqeGAWrg3241uhKIiS-56" target="0NCqeGAWrg3241uhKIiS-59">
          <mxGeometry relative="1" as="geometry" />
        </mxCell>
        <mxCell id="0NCqeGAWrg3241uhKIiS-61" style="edgeStyle=orthogonalEdgeStyle;rounded=0;orthogonalLoop=1;jettySize=auto;html=1;" edge="1" parent="1" source="0NCqeGAWrg3241uhKIiS-56" target="0NCqeGAWrg3241uhKIiS-57">
          <mxGeometry relative="1" as="geometry" />
        </mxCell>
        <mxCell id="0NCqeGAWrg3241uhKIiS-63" style="edgeStyle=orthogonalEdgeStyle;rounded=0;orthogonalLoop=1;jettySize=auto;html=1;entryX=0.5;entryY=0;entryDx=0;entryDy=0;" edge="1" parent="1" source="0NCqeGAWrg3241uhKIiS-56" target="0NCqeGAWrg3241uhKIiS-58">
          <mxGeometry relative="1" as="geometry">
            <Array as="points">
              <mxPoint x="290" y="400" />
              <mxPoint x="162" y="400" />
            </Array>
          </mxGeometry>
        </mxCell>
        <mxCell id="0NCqeGAWrg3241uhKIiS-56" value="Человек" style="rounded=0;whiteSpace=wrap;html=1;" vertex="1" parent="1">
          <mxGeometry x="230" y="310" width="120" height="60" as="geometry" />
        </mxCell>
        <mxCell id="0NCqeGAWrg3241uhKIiS-69" style="edgeStyle=orthogonalEdgeStyle;rounded=0;orthogonalLoop=1;jettySize=auto;html=1;entryX=0;entryY=0.5;entryDx=0;entryDy=0;" edge="1" parent="1" source="0NCqeGAWrg3241uhKIiS-57" target="0NCqeGAWrg3241uhKIiS-54">
          <mxGeometry relative="1" as="geometry">
            <Array as="points">
              <mxPoint x="320" y="630" />
            </Array>
          </mxGeometry>
        </mxCell>
        <mxCell id="0NCqeGAWrg3241uhKIiS-57" value="Выбирает цвет тега" style="ellipse;whiteSpace=wrap;html=1;" vertex="1" parent="1">
          <mxGeometry x="250" y="520" width="120" height="80" as="geometry" />
        </mxCell>
        <mxCell id="0NCqeGAWrg3241uhKIiS-70" style="edgeStyle=orthogonalEdgeStyle;rounded=0;orthogonalLoop=1;jettySize=auto;html=1;" edge="1" parent="1" source="0NCqeGAWrg3241uhKIiS-54">
          <mxGeometry relative="1" as="geometry">
            <mxPoint x="480.7717041800643" y="630" as="targetPoint" />
            <Array as="points">
              <mxPoint x="162" y="630" />
            </Array>
          </mxGeometry>
        </mxCell>
        <mxCell id="0NCqeGAWrg3241uhKIiS-58" value="Выбирает&lt;br&gt;местоположение" style="ellipse;whiteSpace=wrap;html=1;" vertex="1" parent="1">
          <mxGeometry x="102" y="460" width="120" height="80" as="geometry" />
        </mxCell>
        <mxCell id="0NCqeGAWrg3241uhKIiS-68" style="edgeStyle=orthogonalEdgeStyle;rounded=0;orthogonalLoop=1;jettySize=auto;html=1;entryX=0;entryY=0.5;entryDx=0;entryDy=0;" edge="1" parent="1" source="0NCqeGAWrg3241uhKIiS-59" target="0NCqeGAWrg3241uhKIiS-54">
          <mxGeometry relative="1" as="geometry">
            <Array as="points">
              <mxPoint x="70" y="630" />
            </Array>
          </mxGeometry>
        </mxCell>
        <mxCell id="0NCqeGAWrg3241uhKIiS-59" value="Вводит&lt;br&gt;задачу" style="ellipse;whiteSpace=wrap;html=1;" vertex="1" parent="1">
          <mxGeometry x="10" y="310" width="120" height="80" as="geometry" />
        </mxCell>
        <mxCell id="0NCqeGAWrg3241uhKIiS-73" value="Вывод&lt;br&gt;задачи&lt;br&gt;на экран" style="ellipse;whiteSpace=wrap;html=1;" vertex="1" parent="1">
          <mxGeometry x="370" y="310" width="120" height="80" as="geometry" />
        </mxCell>
        <mxCell id="0NCqeGAWrg3241uhKIiS-74" value="" style="edgeStyle=orthogonalEdgeStyle;rounded=0;orthogonalLoop=1;jettySize=auto;html=1;" edge="1" parent="1" source="0NCqeGAWrg3241uhKIiS-58" target="0NCqeGAWrg3241uhKIiS-54">
          <mxGeometry relative="1" as="geometry">
            <mxPoint x="550" y="630" as="targetPoint" />
            <mxPoint x="162" y="540" as="sourcePoint" />
            <Array as="points">
              <mxPoint x="162" y="630" />
            </Array>
          </mxGeometry>
        </mxCell>
        <mxCell id="0NCqeGAWrg3241uhKIiS-54" value="Задача" style="rounded=0;whiteSpace=wrap;html=1;" vertex="1" parent="1">
          <mxGeometry x="480" y="600" width="120" height="60" as="geometry" />
        </mxCell>
        <mxCell id="0NCqeGAWrg3241uhKIiS-75" value="" style="endArrow=open;startArrow=circlePlus;endFill=0;startFill=0;endSize=8;html=1;rounded=0;" edge="1" parent="1">
          <mxGeometry width="160" relative="1" as="geometry">
            <mxPoint x="680" y="520" as="sourcePoint" />
            <mxPoint x="680" y="430" as="targetPoint" />
          </mxGeometry>
        </mxCell>
        <mxCell id="0NCqeGAWrg3241uhKIiS-77" value="Передает&lt;br&gt;все данные" style="text;html=1;align=center;verticalAlign=middle;whiteSpace=wrap;rounded=0;" vertex="1" parent="1">
          <mxGeometry x="590" y="460" width="100" height="30" as="geometry" />
        </mxCell>
      </root>
    </mxGraphModel>
  </diagram>
</mxfile>
